<svg width="1280" height="720" viewBox="0 0 1280 720" fill="none" xmlns="http://www.w3.org/2000/svg" style="">
    <g clip-path="url(#clip0_1_2)">
        <path width="1280" height="720" fill="black" d="M0 0 L1280 0 L1280 720 L0 720 Z"></path>
        <path fill="black" d="M-47,360A1000,1000 0,1,1 1953,360A1000,1000 0,1,1 -47,360"></path>
        <path stroke="black" stroke-opacity="0.2"
            d="M-46.5,360A999.5,999.5 0,1,1 1952.5,360A999.5,999.5 0,1,1 -46.5,360" class="pyPDhBAg_2"></path>
        <path fill="#020202" d="M3,360A950,950 0,1,1 1903,360A950,950 0,1,1 3,360" class="pyPDhBAg_3"></path>
        <path stroke="black" stroke-opacity="0.2" d="M3.5,360A949.5,949.5 0,1,1 1902.5,360A949.5,949.5 0,1,1 3.5,360"
            class="pyPDhBAg_4"></path>
        <path fill="#040404" d="M53,360A900,900 0,1,1 1853,360A900,900 0,1,1 53,360" class="pyPDhBAg_5"></path>
        <path stroke="black" stroke-opacity="0.2" d="M53.5,360A899.5,899.5 0,1,1 1852.5,360A899.5,899.5 0,1,1 53.5,360"
            class="pyPDhBAg_6"></path>
        <path fill="#060606" d="M103,360A850,850 0,1,1 1803,360A850,850 0,1,1 103,360" class="pyPDhBAg_7"></path>
        <path stroke="black" stroke-opacity="0.2"
            d="M103.5,360A849.5,849.5 0,1,1 1802.5,360A849.5,849.5 0,1,1 103.5,360" class="pyPDhBAg_8"></path>
        <path fill="#080808" d="M153,360A800,800 0,1,1 1753,360A800,800 0,1,1 153,360" class="pyPDhBAg_9"></path>
        <path stroke="black" stroke-opacity="0.2"
            d="M153.5,360A799.5,799.5 0,1,1 1752.5,360A799.5,799.5 0,1,1 153.5,360" class="pyPDhBAg_10"></path>
        <path fill="#0A0A0A" d="M203,360A750,750 0,1,1 1703,360A750,750 0,1,1 203,360" class="pyPDhBAg_11"></path>
        <path stroke="black" stroke-opacity="0.2"
            d="M203.5,360A749.5,749.5 0,1,1 1702.5,360A749.5,749.5 0,1,1 203.5,360" class="pyPDhBAg_12"></path>
        <path fill="#0C0C0C" d="M253,360A700,700 0,1,1 1653,360A700,700 0,1,1 253,360" class="pyPDhBAg_13"></path>
        <path stroke="black" stroke-opacity="0.2"
            d="M253.5,360A699.5,699.5 0,1,1 1652.5,360A699.5,699.5 0,1,1 253.5,360" class="pyPDhBAg_14"></path>
        <path fill="#0E0E0E" d="M303,360A650,650 0,1,1 1603,360A650,650 0,1,1 303,360" class="pyPDhBAg_15"></path>
        <path stroke="black" stroke-opacity="0.2"
            d="M303.5,360A649.5,649.5 0,1,1 1602.5,360A649.5,649.5 0,1,1 303.5,360" class="pyPDhBAg_16"></path>
        <path fill="#101010" d="M353,360A600,600 0,1,1 1553,360A600,600 0,1,1 353,360" class="pyPDhBAg_17"></path>
        <path stroke="black" stroke-opacity="0.2"
            d="M353.5,360A599.5,599.5 0,1,1 1552.5,360A599.5,599.5 0,1,1 353.5,360" class="pyPDhBAg_18"></path>
        <path fill="#121212" d="M403,360A550,550 0,1,1 1503,360A550,550 0,1,1 403,360" class="pyPDhBAg_19"></path>
        <path stroke="black" stroke-opacity="0.2"
            d="M403.5,360A549.5,549.5 0,1,1 1502.5,360A549.5,549.5 0,1,1 403.5,360" class="pyPDhBAg_20"></path>
        <path fill="#141414" d="M453,360A500,500 0,1,1 1453,360A500,500 0,1,1 453,360" class="pyPDhBAg_21"></path>
        <path stroke="black" stroke-opacity="0.2"
            d="M453.5,360A499.5,499.5 0,1,1 1452.5,360A499.5,499.5 0,1,1 453.5,360" class="pyPDhBAg_22"></path>
        <path fill="#161616" d="M503,360A450,450 0,1,1 1403,360A450,450 0,1,1 503,360" class="pyPDhBAg_23"></path>
        <path stroke="black" stroke-opacity="0.2"
            d="M503.5,360A449.5,449.5 0,1,1 1402.5,360A449.5,449.5 0,1,1 503.5,360" class="pyPDhBAg_24"></path>
        <path fill="#181818" d="M553,360A400,400 0,1,1 1353,360A400,400 0,1,1 553,360" class="pyPDhBAg_25"></path>
        <path stroke="black" stroke-opacity="0.2"
            d="M553.5,360A399.5,399.5 0,1,1 1352.5,360A399.5,399.5 0,1,1 553.5,360" class="pyPDhBAg_26"></path>
        <path fill="#1A1A1A" d="M603,360A350,350 0,1,1 1303,360A350,350 0,1,1 603,360" class="pyPDhBAg_27"></path>
        <path stroke="black" stroke-opacity="0.2"
            d="M603.5,360A349.5,349.5 0,1,1 1302.5,360A349.5,349.5 0,1,1 603.5,360" class="pyPDhBAg_28"></path>
        <path fill="#1C1C1C" d="M653,360A300,300 0,1,1 1253,360A300,300 0,1,1 653,360" class="pyPDhBAg_29"></path>
        <path stroke="black" stroke-opacity="0.2"
            d="M653.5,360A299.5,299.5 0,1,1 1252.5,360A299.5,299.5 0,1,1 653.5,360" class="pyPDhBAg_30"></path>
        <path fill="#1E1E1E" d="M703,360A250,250 0,1,1 1203,360A250,250 0,1,1 703,360" class="pyPDhBAg_31"></path>
        <path stroke="black" stroke-opacity="0.2"
            d="M703.5,360A249.5,249.5 0,1,1 1202.5,360A249.5,249.5 0,1,1 703.5,360" class="pyPDhBAg_32"></path>
        <path fill="#202020" d="M753,360A200,200 0,1,1 1153,360A200,200 0,1,1 753,360" class="pyPDhBAg_33"></path>
        <path stroke="black" stroke-opacity="0.2"
            d="M753.5,360A199.5,199.5 0,1,1 1152.5,360A199.5,199.5 0,1,1 753.5,360" class="pyPDhBAg_34"></path>
        <path fill="#222222" d="M803,360A150,150 0,1,1 1103,360A150,150 0,1,1 803,360" class="pyPDhBAg_35"></path>
        <path stroke="black" stroke-opacity="0.2"
            d="M803.5,360A149.5,149.5 0,1,1 1102.5,360A149.5,149.5 0,1,1 803.5,360" class="pyPDhBAg_36"></path>
        <path fill="#242424" d="M853,360A100,100 0,1,1 1053,360A100,100 0,1,1 853,360" class="pyPDhBAg_37"></path>
        <path stroke="black" stroke-opacity="0.2" d="M853.5,360A99.5,99.5 0,1,1 1052.5,360A99.5,99.5 0,1,1 853.5,360"
            class="pyPDhBAg_38"></path>
        <path fill="#262626" d="M903,360A50,50 0,1,1 1003,360A50,50 0,1,1 903,360" class="pyPDhBAg_39"></path>
        <path stroke="black" stroke-opacity="0.2" d="M903.5,360A49.5,49.5 0,1,1 1002.5,360A49.5,49.5 0,1,1 903.5,360"
            class="pyPDhBAg_40"></path>
        <path fill="#1E1E1E" d="M945,359.5A7.5,7.5 0,1,1 960,359.5A7.5,7.5 0,1,1 945,359.5" class="pyPDhBAg_41"></path>
    </g>
    <defs>
        <clipPath id="clip0_1_2">
            <path width="1280" height="720" fill="white" d="M0 0 L1280 0 L1280 720 L0 720 Z" class="uByqmphm_42"></path>
        </clipPath>
    </defs>
    <style data-made-with="vivus-instant">
        .uByqmphm_0 {
            stroke-dasharray: 4000 4002;
            stroke-dashoffset: 4001;
            animation: uByqmphm_draw 2666ms ease-in-out 0ms forwards;
            fill-opacity: 0;
        }

        .uByqmphm_1 {
            stroke-dasharray: 6285 6287;
            stroke-dashoffset: 6286;
            animation: uByqmphm_draw 2666ms ease-in-out 31ms forwards;
            fill-opacity: 0;
        }

        .uByqmphm_2 {
            stroke-dasharray: 6281 6283;
            stroke-dashoffset: 6282;
            animation: uByqmphm_draw 2666ms ease-in-out 63ms forwards;
            fill-opacity: 0;
        }

        .uByqmphm_3 {
            stroke-dasharray: 5970 5972;
            stroke-dashoffset: 5971;
            animation: uByqmphm_draw 2666ms ease-in-out 95ms forwards;
            fill-opacity: 0;
        }

        .uByqmphm_4 {
            stroke-dasharray: 5967 5969;
            stroke-dashoffset: 5968;
            animation: uByqmphm_draw 2666ms ease-in-out 126ms forwards;
            fill-opacity: 0;
        }

        .uByqmphm_5 {
            stroke-dasharray: 5656 5658;
            stroke-dashoffset: 5657;
            animation: uByqmphm_draw 2666ms ease-in-out 158ms forwards;
            fill-opacity: 0;
        }

        .uByqmphm_6 {
            stroke-dasharray: 5653 5655;
            stroke-dashoffset: 5654;
            animation: uByqmphm_draw 2666ms ease-in-out 190ms forwards;
            fill-opacity: 0;
        }

        .uByqmphm_7 {
            stroke-dasharray: 5342 5344;
            stroke-dashoffset: 5343;
            animation: uByqmphm_draw 2666ms ease-in-out 222ms forwards;
            fill-opacity: 0;
        }

        .uByqmphm_8 {
            stroke-dasharray: 5340 5342;
            stroke-dashoffset: 5341;
            animation: uByqmphm_draw 2666ms ease-in-out 253ms forwards;
            fill-opacity: 0;
        }

        .uByqmphm_9 {
            stroke-dasharray: 5029 5031;
            stroke-dashoffset: 5030;
            animation: uByqmphm_draw 2666ms ease-in-out 285ms forwards;
            fill-opacity: 0;
        }

        .uByqmphm_10 {
            stroke-dasharray: 5026 5028;
            stroke-dashoffset: 5027;
            animation: uByqmphm_draw 2666ms ease-in-out 317ms forwards;
            fill-opacity: 0;
        }

        .uByqmphm_11 {
            stroke-dasharray: 4714 4716;
            stroke-dashoffset: 4715;
            animation: uByqmphm_draw 2666ms ease-in-out 349ms forwards;
            fill-opacity: 0;
        }

        .uByqmphm_12 {
            stroke-dasharray: 4710 4712;
            stroke-dashoffset: 4711;
            animation: uByqmphm_draw 2666ms ease-in-out 380ms forwards;
            fill-opacity: 0;
        }

        .uByqmphm_13 {
            stroke-dasharray: 4399 4401;
            stroke-dashoffset: 4400;
            animation: uByqmphm_draw 2666ms ease-in-out 412ms forwards;
            fill-opacity: 0;
        }

        .uByqmphm_14 {
            stroke-dasharray: 4396 4398;
            stroke-dashoffset: 4397;
            animation: uByqmphm_draw 2666ms ease-in-out 444ms forwards;
            fill-opacity: 0;
        }

        .uByqmphm_15 {
            stroke-dasharray: 4085 4087;
            stroke-dashoffset: 4086;
            animation: uByqmphm_draw 2666ms ease-in-out 476ms forwards;
            fill-opacity: 0;
        }

        .uByqmphm_16 {
            stroke-dasharray: 4082 4084;
            stroke-dashoffset: 4083;
            animation: uByqmphm_draw 2666ms ease-in-out 507ms forwards;
            fill-opacity: 0;
        }

        .uByqmphm_17 {
            stroke-dasharray: 3771 3773;
            stroke-dashoffset: 3772;
            animation: uByqmphm_draw 2666ms ease-in-out 539ms forwards;
            fill-opacity: 0;
        }

        .uByqmphm_18 {
            stroke-dasharray: 3768 3770;
            stroke-dashoffset: 3769;
            animation: uByqmphm_draw 2666ms ease-in-out 571ms forwards;
            fill-opacity: 0;
        }

        .uByqmphm_19 {
            stroke-dasharray: 3457 3459;
            stroke-dashoffset: 3458;
            animation: uByqmphm_draw 2666ms ease-in-out 603ms forwards;
            fill-opacity: 0;
        }

        .uByqmphm_20 {
            stroke-dasharray: 3454 3456;
            stroke-dashoffset: 3455;
            animation: uByqmphm_draw 2666ms ease-in-out 634ms forwards;
            fill-opacity: 0;
        }

        .uByqmphm_21 {
            stroke-dasharray: 3143 3145;
            stroke-dashoffset: 3144;
            animation: uByqmphm_draw 2666ms ease-in-out 666ms forwards;
            fill-opacity: 0;
        }

        .uByqmphm_22 {
            stroke-dasharray: 3139 3141;
            stroke-dashoffset: 3140;
            animation: uByqmphm_draw 2666ms ease-in-out 698ms forwards;
            fill-opacity: 0;
        }

        .uByqmphm_23 {
            stroke-dasharray: 2828 2830;
            stroke-dashoffset: 2829;
            animation: uByqmphm_draw 2666ms ease-in-out 730ms forwards;
            fill-opacity: 0;
        }

        .uByqmphm_24 {
            stroke-dasharray: 2825 2827;
            stroke-dashoffset: 2826;
            animation: uByqmphm_draw 2666ms ease-in-out 761ms forwards;
            fill-opacity: 0;
        }

        .uByqmphm_25 {
            stroke-dasharray: 2514 2516;
            stroke-dashoffset: 2515;
            animation: uByqmphm_draw 2666ms ease-in-out 793ms forwards;
            fill-opacity: 0;
        }

        .uByqmphm_26 {
            stroke-dasharray: 2511 2513;
            stroke-dashoffset: 2512;
            animation: uByqmphm_draw 2666ms ease-in-out 825ms forwards;
            fill-opacity: 0;
        }

        .uByqmphm_27 {
            stroke-dasharray: 2200 2202;
            stroke-dashoffset: 2201;
            animation: uByqmphm_draw 2666ms ease-in-out 857ms forwards;
            fill-opacity: 0;
        }

        .uByqmphm_28 {
            stroke-dasharray: 2197 2199;
            stroke-dashoffset: 2198;
            animation: uByqmphm_draw 2666ms ease-in-out 888ms forwards;
            fill-opacity: 0;
        }

        .uByqmphm_29 {
            stroke-dasharray: 1886 1888;
            stroke-dashoffset: 1887;
            animation: uByqmphm_draw 2666ms ease-in-out 920ms forwards;
            fill-opacity: 0;
        }

        .uByqmphm_30 {
            stroke-dasharray: 1883 1885;
            stroke-dashoffset: 1884;
            animation: uByqmphm_draw 2666ms ease-in-out 952ms forwards;
            fill-opacity: 0;
        }

        .uByqmphm_31 {
            stroke-dasharray: 1572 1574;
            stroke-dashoffset: 1573;
            animation: uByqmphm_draw 2666ms ease-in-out 984ms forwards;
            fill-opacity: 0;
        }

        .uByqmphm_32 {
            stroke-dasharray: 1568 1570;
            stroke-dashoffset: 1569;
            animation: uByqmphm_draw 2666ms ease-in-out 1015ms forwards;
            fill-opacity: 0;
        }

        .uByqmphm_33 {
            stroke-dasharray: 1257 1259;
            stroke-dashoffset: 1258;
            animation: uByqmphm_draw 2666ms ease-in-out 1047ms forwards;
            fill-opacity: 0;
        }

        .uByqmphm_34 {
            stroke-dasharray: 1254 1256;
            stroke-dashoffset: 1255;
            animation: uByqmphm_draw 2666ms ease-in-out 1079ms forwards;
            fill-opacity: 0;
        }

        .uByqmphm_35 {
            stroke-dasharray: 943 945;
            stroke-dashoffset: 944;
            animation: uByqmphm_draw 2666ms ease-in-out 1111ms forwards;
            fill-opacity: 0;
        }

        .uByqmphm_36 {
            stroke-dasharray: 940 942;
            stroke-dashoffset: 941;
            animation: uByqmphm_draw 2666ms ease-in-out 1142ms forwards;
            fill-opacity: 0;
        }

        .uByqmphm_37 {
            stroke-dasharray: 629 631;
            stroke-dashoffset: 630;
            animation: uByqmphm_draw 2666ms ease-in-out 1174ms forwards;
            fill-opacity: 0;
        }

        .uByqmphm_38 {
            stroke-dasharray: 626 628;
            stroke-dashoffset: 627;
            animation: uByqmphm_draw 2666ms ease-in-out 1206ms forwards;
            fill-opacity: 0;
        }

        .uByqmphm_39 {
            stroke-dasharray: 315 317;
            stroke-dashoffset: 316;
            animation: uByqmphm_draw 2666ms ease-in-out 1238ms forwards;
            fill-opacity: 0;
        }

        .uByqmphm_40 {
            stroke-dasharray: 312 314;
            stroke-dashoffset: 313;
            animation: uByqmphm_draw 2666ms ease-in-out 1269ms forwards;
            fill-opacity: 0;
        }

        .uByqmphm_41 {
            stroke-dasharray: 48 50;
            stroke-dashoffset: 49;
            animation: uByqmphm_draw 2666ms ease-in-out 1301ms forwards;
            fill-opacity: 0;
        }

        .uByqmphm_42 {
            stroke-dasharray: 4000 4002;
            stroke-dashoffset: 4001;
            animation: uByqmphm_draw 2666ms ease-in-out 1333ms forwards;
            fill-opacity: 0;
        }

        @keyframes uByqmphm_draw {
            0% {
                fill-opacity: 0;
            }

            94.44444444444444% {
                fill-opacity: 0;
            }

            100% {
                stroke-dashoffset: 0;
                fill-opacity: 1;
            }

            100% {
                stroke-dashoffset: 0;
            }
        }
    </style>
</svg>