<svg width="1280" height="720" viewBox="0 0 1280 720" fill="none" xmlns="http://www.w3.org/2000/svg">
<g clip-path="url(#clip0_108_49)">
<path d="M967 53H-313V773H967V53Z" fill="black"/>
<path d="M640 1413C1192.28 1413 1640 965.285 1640 413C1640 -139.285 1192.28 -587 640 -587C87.7153 -587 -360 -139.285 -360 413C-360 965.285 87.7153 1413 640 1413Z" fill="black"/>
<path d="M640 1412.5C1192.01 1412.5 1639.5 965.009 1639.5 413C1639.5 -139.009 1192.01 -586.5 640 -586.5C87.9914 -586.5 -359.5 -139.009 -359.5 413C-359.5 965.009 87.9914 1412.5 640 1412.5Z" stroke="black" stroke-opacity="0.2"/>
<path d="M640 1363C1164.67 1363 1590 937.671 1590 413C1590 -111.671 1164.67 -537 640 -537C115.329 -537 -310 -111.671 -310 413C-310 937.671 115.329 1363 640 1363Z" fill="#020202"/>
<path d="M640 1362.5C1164.39 1362.5 1589.5 937.394 1589.5 413C1589.5 -111.394 1164.39 -536.5 640 -536.5C115.606 -536.5 -309.5 -111.394 -309.5 413C-309.5 937.394 115.606 1362.5 640 1362.5Z" stroke="black" stroke-opacity="0.2"/>
<path d="M640 1313C1137.06 1313 1540 910.056 1540 413C1540 -84.0563 1137.06 -487 640 -487C142.944 -487 -260 -84.0563 -260 413C-260 910.056 142.944 1313 640 1313Z" fill="#040404"/>
<path d="M640 1312.5C1136.78 1312.5 1539.5 909.78 1539.5 413C1539.5 -83.7801 1136.78 -486.5 640 -486.5C143.22 -486.5 -259.5 -83.7801 -259.5 413C-259.5 909.78 143.22 1312.5 640 1312.5Z" stroke="black" stroke-opacity="0.2"/>
<path d="M640 1263C1109.44 1263 1490 882.442 1490 413C1490 -56.442 1109.44 -437 640 -437C170.558 -437 -210 -56.442 -210 413C-210 882.442 170.558 1263 640 1263Z" fill="#060606"/>
<path d="M640 1262.5C1109.17 1262.5 1489.5 882.166 1489.5 413C1489.5 -56.1659 1109.17 -436.5 640 -436.5C170.834 -436.5 -209.5 -56.1659 -209.5 413C-209.5 882.166 170.834 1262.5 640 1262.5Z" stroke="black" stroke-opacity="0.2"/>
<path d="M640 1213C1081.83 1213 1440 854.828 1440 413C1440 -28.8278 1081.83 -387 640 -387C198.172 -387 -160 -28.8278 -160 413C-160 854.828 198.172 1213 640 1213Z" fill="#080808"/>
<path d="M640 1212.5C1081.55 1212.5 1439.5 854.552 1439.5 413C1439.5 -28.5517 1081.55 -386.5 640 -386.5C198.448 -386.5 -159.5 -28.5517 -159.5 413C-159.5 854.552 198.448 1212.5 640 1212.5Z" stroke="black" stroke-opacity="0.2"/>
<path d="M640 1163C1054.21 1163 1390 827.214 1390 413C1390 -1.21356 1054.21 -337 640 -337C225.786 -337 -110 -1.21356 -110 413C-110 827.214 225.786 1163 640 1163Z" fill="#0A0A0A"/>
<path d="M640 1162.5C1053.94 1162.5 1389.5 826.937 1389.5 413C1389.5 -0.937408 1053.94 -336.5 640 -336.5C226.063 -336.5 -109.5 -0.937408 -109.5 413C-109.5 826.937 226.063 1162.5 640 1162.5Z" stroke="black" stroke-opacity="0.2"/>
<path d="M640 1113C1026.6 1113 1340 799.599 1340 413C1340 26.4007 1026.6 -287 640 -287C253.401 -287 -60 26.4007 -60 413C-60 799.599 253.401 1113 640 1113Z" fill="#0C0C0C"/>
<path d="M640 1112.5C1026.32 1112.5 1339.5 799.323 1339.5 413C1339.5 26.6768 1026.32 -286.5 640 -286.5C253.677 -286.5 -59.5 26.6768 -59.5 413C-59.5 799.323 253.677 1112.5 640 1112.5Z" stroke="black" stroke-opacity="0.2"/>
<path d="M640 1063C998.985 1063 1290 771.985 1290 413C1290 54.0149 998.985 -237 640 -237C281.015 -237 -10 54.0149 -10 413C-10 771.985 281.015 1063 640 1063Z" fill="#0E0E0E"/>
<path d="M640 1062.5C998.709 1062.5 1289.5 771.709 1289.5 413C1289.5 54.291 998.709 -236.5 640 -236.5C281.291 -236.5 -9.5 54.291 -9.5 413C-9.5 771.709 281.291 1062.5 640 1062.5Z" stroke="black" stroke-opacity="0.2"/>
<path d="M640 1013C971.371 1013 1240 744.371 1240 413C1240 81.6292 971.371 -187 640 -187C308.629 -187 40 81.6292 40 413C40 744.371 308.629 1013 640 1013Z" fill="#101010"/>
<path d="M640 1012.5C971.095 1012.5 1239.5 744.095 1239.5 413C1239.5 81.9053 971.095 -186.5 640 -186.5C308.905 -186.5 40.5 81.9053 40.5 413C40.5 744.095 308.905 1012.5 640 1012.5Z" stroke="black" stroke-opacity="0.2"/>
<path d="M640 963C943.757 963 1190 716.757 1190 413C1190 109.243 943.757 -137 640 -137C336.243 -137 90 109.243 90 413C90 716.757 336.243 963 640 963Z" fill="#121212"/>
<path d="M640 962.5C943.48 962.5 1189.5 716.48 1189.5 413C1189.5 109.52 943.48 -136.5 640 -136.5C336.52 -136.5 90.5 109.52 90.5 413C90.5 716.48 336.52 962.5 640 962.5Z" stroke="black" stroke-opacity="0.2"/>
<path d="M640 913C916.142 913 1140 689.142 1140 413C1140 136.858 916.142 -87 640 -87C363.858 -87 140 136.858 140 413C140 689.142 363.858 913 640 913Z" fill="#141414"/>
<path d="M640 912.5C915.866 912.5 1139.5 688.866 1139.5 413C1139.5 137.134 915.866 -86.5 640 -86.5C364.134 -86.5 140.5 137.134 140.5 413C140.5 688.866 364.134 912.5 640 912.5Z" stroke="black" stroke-opacity="0.2"/>
<path d="M640 863C888.528 863 1090 661.528 1090 413C1090 164.472 888.528 -37 640 -37C391.472 -37 190 164.472 190 413C190 661.528 391.472 863 640 863Z" fill="#161616"/>
<path d="M640 862.5C888.252 862.5 1089.5 661.252 1089.5 413C1089.5 164.748 888.252 -36.5 640 -36.5C391.748 -36.5 190.5 164.748 190.5 413C190.5 661.252 391.748 862.5 640 862.5Z" stroke="black" stroke-opacity="0.2"/>
<path d="M640 813C860.914 813 1040 633.914 1040 413C1040 192.086 860.914 13 640 13C419.086 13 240 192.086 240 413C240 633.914 419.086 813 640 813Z" fill="#181818"/>
<path d="M640 812.5C860.638 812.5 1039.5 633.638 1039.5 413C1039.5 192.362 860.638 13.5 640 13.5C419.362 13.5 240.5 192.362 240.5 413C240.5 633.638 419.362 812.5 640 812.5Z" stroke="black" stroke-opacity="0.2"/>
<path d="M640 763C833.3 763 990 606.3 990 413C990 219.7 833.3 63 640 63C446.7 63 290 219.7 290 413C290 606.3 446.7 763 640 763Z" fill="#1A1A1A"/>
<path d="M640 762.5C833.023 762.5 989.5 606.023 989.5 413C989.5 219.976 833.023 63.5 640 63.5C446.976 63.5 290.5 219.976 290.5 413C290.5 606.023 446.976 762.5 640 762.5Z" stroke="black" stroke-opacity="0.2"/>
<path d="M940 413C940 578.685 805.69 713 640 713C474.315 713 340 578.685 340 413C340 247.315 474.315 113 640 113C805.69 113 940 247.315 940 413Z" fill="#1C1C1C"/>
<path d="M939.5 413C939.5 578.409 805.41 712.5 640 712.5C474.591 712.5 340.5 578.409 340.5 413C340.5 247.591 474.591 113.5 640 113.5C805.41 113.5 939.5 247.591 939.5 413Z" stroke="black" stroke-opacity="0.2"/>
<path d="M640 663C778.071 663 890 551.071 890 413C890 274.929 778.071 163 640 163C501.929 163 390 274.929 390 413C390 551.071 501.929 663 640 663Z" fill="#1E1E1E"/>
<path d="M640 662.5C777.795 662.5 889.5 550.795 889.5 413C889.5 275.205 777.795 163.5 640 163.5C502.205 163.5 390.5 275.205 390.5 413C390.5 550.795 502.205 662.5 640 662.5Z" stroke="black" stroke-opacity="0.2"/>
<path d="M640 613C750.457 613 840 523.457 840 413C840 302.543 750.457 213 640 213C529.543 213 440 302.543 440 413C440 523.457 529.543 613 640 613Z" fill="#202020"/>
<path d="M640 612.5C750.181 612.5 839.5 523.181 839.5 413C839.5 302.819 750.181 213.5 640 213.5C529.819 213.5 440.5 302.819 440.5 413C440.5 523.181 529.819 612.5 640 612.5Z" stroke="black" stroke-opacity="0.2"/>
<path d="M640 563C722.843 563 790 495.843 790 413C790 330.157 722.843 263 640 263C557.157 263 490 330.157 490 413C490 495.843 557.157 563 640 563Z" fill="#222222"/>
<path d="M640 562.5C722.567 562.5 789.5 495.567 789.5 413C789.5 330.433 722.567 263.5 640 263.5C557.433 263.5 490.5 330.433 490.5 413C490.5 495.567 557.433 562.5 640 562.5Z" stroke="black" stroke-opacity="0.2"/>
<path d="M640 313C695.228 313 740 357.772 740 413C740 468.228 695.228 513 640 513C584.772 513 540 468.228 540 413C540 357.772 584.772 313 640 313Z" fill="#242424"/>
<path d="M640 313.5C694.952 313.5 739.5 358.048 739.5 413C739.5 467.952 694.952 512.5 640 512.5C585.048 512.5 540.5 467.952 540.5 413C540.5 358.048 585.048 313.5 640 313.5Z" stroke="black" stroke-opacity="0.2"/>
<path d="M640 463C667.614 463 690 440.614 690 413C690 385.386 667.614 363 640 363C612.386 363 590 385.386 590 413C590 440.614 612.386 463 640 463Z" fill="#262626"/>
<path d="M640 462.5C667.338 462.5 689.5 440.338 689.5 413C689.5 385.662 667.338 363.5 640 363.5C612.662 363.5 590.5 385.662 590.5 413C590.5 440.338 612.662 462.5 640 462.5Z" stroke="black" stroke-opacity="0.2"/>
<path d="M639.5 420C643.642 420 647 416.642 647 412.5C647 408.358 643.642 405 639.5 405C635.358 405 632 408.358 632 412.5C632 416.642 635.358 420 639.5 420Z" fill="#1E1E1E"/>
</g>
<defs>
<clipPath id="clip0_108_49">
<rect width="1280" height="720" fill="white"/>
</clipPath>
</defs>
</svg>
